<mxfile host="app.diagrams.net" agent="Mozilla/5.0 (Windows NT 10.0; Win64; x64) AppleWebKit/537.36 (KHTML, like Gecko) Chrome/123.0.0.0 Safari/537.36 OPR/109.0.0.0" version="24.7.6">
  <diagram name="Página-1" id="DnJ5OVpcZv2MFke9pGJC">
    <mxGraphModel dx="986" dy="524" grid="1" gridSize="10" guides="1" tooltips="1" connect="1" arrows="1" fold="1" page="1" pageScale="1" pageWidth="827" pageHeight="1169" math="0" shadow="0">
      <root>
        <mxCell id="0" />
        <mxCell id="1" parent="0" />
        <mxCell id="KxsLzRXTjlWjK1_D4bmC-1" value="" style="ellipse;whiteSpace=wrap;html=1;aspect=fixed;" vertex="1" parent="1">
          <mxGeometry x="80" y="120" width="40" height="40" as="geometry" />
        </mxCell>
        <mxCell id="KxsLzRXTjlWjK1_D4bmC-3" value="" style="endArrow=classic;html=1;rounded=0;" edge="1" parent="1" source="KxsLzRXTjlWjK1_D4bmC-1" target="KxsLzRXTjlWjK1_D4bmC-4">
          <mxGeometry width="50" height="50" relative="1" as="geometry">
            <mxPoint x="390" y="300" as="sourcePoint" />
            <mxPoint x="440" y="250" as="targetPoint" />
          </mxGeometry>
        </mxCell>
        <mxCell id="KxsLzRXTjlWjK1_D4bmC-4" value="Escolhe um produto" style="rounded=1;whiteSpace=wrap;html=1;" vertex="1" parent="1">
          <mxGeometry x="200" y="110" width="120" height="60" as="geometry" />
        </mxCell>
        <mxCell id="KxsLzRXTjlWjK1_D4bmC-9" style="edgeStyle=orthogonalEdgeStyle;rounded=0;orthogonalLoop=1;jettySize=auto;html=1;entryX=0;entryY=0.5;entryDx=0;entryDy=0;" edge="1" parent="1" source="KxsLzRXTjlWjK1_D4bmC-5" target="KxsLzRXTjlWjK1_D4bmC-8">
          <mxGeometry relative="1" as="geometry" />
        </mxCell>
        <mxCell id="KxsLzRXTjlWjK1_D4bmC-5" value="Dar um lance" style="rounded=1;whiteSpace=wrap;html=1;" vertex="1" parent="1">
          <mxGeometry x="400" y="110" width="120" height="60" as="geometry" />
        </mxCell>
        <mxCell id="KxsLzRXTjlWjK1_D4bmC-6" value="" style="endArrow=classic;html=1;rounded=0;entryX=0;entryY=0.5;entryDx=0;entryDy=0;exitX=1;exitY=0.5;exitDx=0;exitDy=0;" edge="1" parent="1" source="KxsLzRXTjlWjK1_D4bmC-4" target="KxsLzRXTjlWjK1_D4bmC-5">
          <mxGeometry width="50" height="50" relative="1" as="geometry">
            <mxPoint x="130" y="150" as="sourcePoint" />
            <mxPoint x="210" y="150" as="targetPoint" />
          </mxGeometry>
        </mxCell>
        <mxCell id="KxsLzRXTjlWjK1_D4bmC-14" value="" style="edgeStyle=orthogonalEdgeStyle;rounded=0;orthogonalLoop=1;jettySize=auto;html=1;" edge="1" parent="1" source="KxsLzRXTjlWjK1_D4bmC-7" target="KxsLzRXTjlWjK1_D4bmC-13">
          <mxGeometry relative="1" as="geometry" />
        </mxCell>
        <mxCell id="KxsLzRXTjlWjK1_D4bmC-7" value="Aguarda o leilão finalizar" style="rounded=1;whiteSpace=wrap;html=1;" vertex="1" parent="1">
          <mxGeometry x="720" y="110" width="120" height="60" as="geometry" />
        </mxCell>
        <mxCell id="KxsLzRXTjlWjK1_D4bmC-10" style="edgeStyle=orthogonalEdgeStyle;rounded=0;orthogonalLoop=1;jettySize=auto;html=1;entryX=0.5;entryY=1;entryDx=0;entryDy=0;exitX=0.5;exitY=1;exitDx=0;exitDy=0;" edge="1" parent="1" source="KxsLzRXTjlWjK1_D4bmC-8" target="KxsLzRXTjlWjK1_D4bmC-5">
          <mxGeometry relative="1" as="geometry">
            <mxPoint x="590" y="260" as="targetPoint" />
            <Array as="points">
              <mxPoint x="620" y="220" />
              <mxPoint x="460" y="220" />
            </Array>
          </mxGeometry>
        </mxCell>
        <mxCell id="KxsLzRXTjlWjK1_D4bmC-11" style="edgeStyle=orthogonalEdgeStyle;rounded=0;orthogonalLoop=1;jettySize=auto;html=1;" edge="1" parent="1" source="KxsLzRXTjlWjK1_D4bmC-8" target="KxsLzRXTjlWjK1_D4bmC-7">
          <mxGeometry relative="1" as="geometry" />
        </mxCell>
        <mxCell id="KxsLzRXTjlWjK1_D4bmC-8" value="" style="rhombus;whiteSpace=wrap;html=1;" vertex="1" parent="1">
          <mxGeometry x="600" y="120" width="40" height="40" as="geometry" />
        </mxCell>
        <mxCell id="KxsLzRXTjlWjK1_D4bmC-12" value="Não está satisfeito?" style="text;html=1;align=center;verticalAlign=middle;resizable=0;points=[];autosize=1;strokeColor=none;fillColor=none;" vertex="1" parent="1">
          <mxGeometry x="560" y="80" width="130" height="30" as="geometry" />
        </mxCell>
        <mxCell id="KxsLzRXTjlWjK1_D4bmC-19" value="" style="edgeStyle=orthogonalEdgeStyle;rounded=0;orthogonalLoop=1;jettySize=auto;html=1;" edge="1" parent="1" source="KxsLzRXTjlWjK1_D4bmC-13" target="KxsLzRXTjlWjK1_D4bmC-17">
          <mxGeometry relative="1" as="geometry" />
        </mxCell>
        <mxCell id="KxsLzRXTjlWjK1_D4bmC-20" value="" style="edgeStyle=orthogonalEdgeStyle;rounded=0;orthogonalLoop=1;jettySize=auto;html=1;" edge="1" parent="1" source="KxsLzRXTjlWjK1_D4bmC-13" target="KxsLzRXTjlWjK1_D4bmC-18">
          <mxGeometry relative="1" as="geometry" />
        </mxCell>
        <mxCell id="KxsLzRXTjlWjK1_D4bmC-13" value="" style="rhombus;whiteSpace=wrap;html=1;" vertex="1" parent="1">
          <mxGeometry x="760" y="280" width="40" height="40" as="geometry" />
        </mxCell>
        <mxCell id="KxsLzRXTjlWjK1_D4bmC-15" value="Foi o maior lance?" style="text;html=1;align=center;verticalAlign=middle;resizable=0;points=[];autosize=1;strokeColor=none;fillColor=none;" vertex="1" parent="1">
          <mxGeometry x="820" y="285" width="120" height="30" as="geometry" />
        </mxCell>
        <mxCell id="KxsLzRXTjlWjK1_D4bmC-22" value="" style="edgeStyle=orthogonalEdgeStyle;rounded=0;orthogonalLoop=1;jettySize=auto;html=1;" edge="1" parent="1" source="KxsLzRXTjlWjK1_D4bmC-17" target="KxsLzRXTjlWjK1_D4bmC-21">
          <mxGeometry relative="1" as="geometry" />
        </mxCell>
        <mxCell id="KxsLzRXTjlWjK1_D4bmC-17" value="Aguarda o leilão finalizar" style="rounded=1;whiteSpace=wrap;html=1;" vertex="1" parent="1">
          <mxGeometry x="500" y="270" width="120" height="60" as="geometry" />
        </mxCell>
        <mxCell id="KxsLzRXTjlWjK1_D4bmC-23" style="edgeStyle=orthogonalEdgeStyle;rounded=0;orthogonalLoop=1;jettySize=auto;html=1;" edge="1" parent="1" source="KxsLzRXTjlWjK1_D4bmC-18" target="KxsLzRXTjlWjK1_D4bmC-21">
          <mxGeometry relative="1" as="geometry" />
        </mxCell>
        <mxCell id="KxsLzRXTjlWjK1_D4bmC-18" value="Aguarda o leilão finalizar" style="rounded=1;whiteSpace=wrap;html=1;" vertex="1" parent="1">
          <mxGeometry x="720" y="410" width="120" height="60" as="geometry" />
        </mxCell>
        <mxCell id="KxsLzRXTjlWjK1_D4bmC-21" value="" style="ellipse;whiteSpace=wrap;html=1;aspect=fixed;" vertex="1" parent="1">
          <mxGeometry x="540" y="420" width="40" height="40" as="geometry" />
        </mxCell>
      </root>
    </mxGraphModel>
  </diagram>
</mxfile>
